# xmcd
#
# Track frame offsets: 
#        150
#        29927
#        53677
#        76265
#        96685
#        116115
#        136495
#        164670
#        185012
#        218067
#        235477
#        264270
#        271610
#        287180
#
# Disc length: 3965 seconds
#
# Revision: 0
# Processed by: cddbd v1.5.2PL0 Copyright (c) Steve Scherf et al.
# Submitted via: ExactAudioCopy v0.95b4
#
DISCID=d90f7b0e
DTITLE=Muddy Puddles - Naughty Little Country Kids
DYEAR=1997
DGENRE=Blues
TTITLE0=Dehlia
TTITLE1=Bottle Up and Go
TTITLE2=Come On in my Kitchen
TTITLE3=I be Troubled
TTITLE4=Travelling Riverside
TTITLE5=Jumper on the Line
TTITLE6=Gallows Pole
TTITLE7=Bulldoze Blues/Goin' up the Country
TTITLE8=Boogie Chillen'
TTITLE9=Fat Dog/Flat Dog
TTITLE10=Nut Nut Na
TTITLE11=Huggin' an a Chalkin'
TTITLE12=Crossroads Blues
TTITLE13=Blackcat Blues
EXTD=
EXTT0=
EXTT1=
EXTT2=
EXTT3=
EXTT4=
EXTT5=
EXTT6=
EXTT7=
EXTT8=
EXTT9=
EXTT10=
EXTT11=
EXTT12=
EXTT13=
PLAYORDER=
